# xmcd CD database file
#
# Track frame offsets:
#	150
#	21150
#	42295
#	63777
#	89615
#	117335
#	137565
#	161527
#	177562
#	202612
#	220860
#
# Disc length: 3276 seconds
#
# Revision: 2
# Processed by: cddbd v1.5.1PL0 Copyright (c) Steve Scherf et al.
# Submitted via: CDex 1.51
#
DISCID=920cca0b
DTITLE=???? - J?s DIMENSION
DYEAR=1995
DGENRE=New Age
TTITLE0=YOUR LIFE
TTITLE1=??????
TTITLE2=????
TTITLE3=???LOVE LETTER
TTITLE4=Adagio
TTITLE5=???????
TTITLE6=????????????
TTITLE7=????
TTITLE8=??????????
TTITLE9=???Baby Face
TTITLE10=????????
EXTD=YEAR: 1995
EXTT0=
EXTT1=
EXTT2=
EXTT3=
EXTT4=
EXTT5=
EXTT6=
EXTT7=
EXTT8=
EXTT9=
EXTT10=
PLAYORDER=
